<svg width="875" height="248" viewBox="0 0 875 248" fill="none" xmlns="http://www.w3.org/2000/svg">
<path d="M33.3 1.40001C25.7 3.5 21 6.10001 14.6 12C8.2 17.8 4.9 22.9 2 31.4C0.1 37 0 39.8 0 124.1C0 209.3 0 211.1 2.1 217.1C6.3 229.8 15.7 239.2 30 245.4C34.3 247.3 37.8 247.4 121.9 247.7C198.1 247.9 210 247.8 215.3 246.4C230.4 242.5 243.3 230.2 247.4 215.8C248.9 210.8 249 200.5 248.8 121.3L248.5 32.3L244.7 24.7C238.9 12.9 227.6 3.90001 214.9 1C212.1 0.300003 179.1 0 124.5 0C53.6 0 37.6 0.300003 33.3 1.40001ZM211 20.9C217.2 22.6 223.6 27.4 226.7 32.6L229.5 37.4V123.9V210.4L227.3 214.4C224.5 219.6 220.5 223.3 215 225.8C210.6 227.8 208.8 227.9 126.9 227.9C57.7 227.9 42.5 227.7 38.6 226.5C31.9 224.5 25.7 219 22.3 212.1L19.5 206.4L19.2 126C18.9 37.7 18.8 39.6 24.9 31.2C28.1 26.8 35.1 22.1 40.3 20.9C45.2 19.7 206.9 19.7 211 20.9Z" fill="#23458F"/>
<path d="M33.3 1.40001C25.7 3.5 21 6.10001 14.6 12C8.2 17.8 4.9 22.9 2 31.4C0.1 37 0 39.8 0 124.1C0 209.3 0 211.1 2.1 217.1C6.3 229.8 15.7 239.2 30 245.4C34.3 247.3 37.8 247.4 121.9 247.7C198.1 247.9 210 247.8 215.3 246.4C230.4 242.5 243.3 230.2 247.4 215.8C248.9 210.8 249 200.5 248.8 121.3L248.5 32.3L244.7 24.7C238.9 12.9 227.6 3.90001 214.9 1C212.1 0.300003 179.1 0 124.5 0C53.6 0 37.6 0.300003 33.3 1.40001ZM211 20.9C217.2 22.6 223.6 27.4 226.7 32.6L229.5 37.4V123.9V210.4L227.3 214.4C224.5 219.6 220.5 223.3 215 225.8C210.6 227.8 208.8 227.9 126.9 227.9C57.7 227.9 42.5 227.7 38.6 226.5C31.9 224.5 25.7 219 22.3 212.1L19.5 206.4L19.2 126C18.9 37.7 18.8 39.6 24.9 31.2C28.1 26.8 35.1 22.1 40.3 20.9C45.2 19.7 206.9 19.7 211 20.9Z" fill="#23458F"/>
<path d="M71.2 66.9C58.1 70 53 79.8 53 101.5V112.8L50.1 114.8C48.5 116 46.8 116.9 46.2 116.9C45.7 116.9 43.7 118.5 41.7 120.4C38.5 123.5 38 124.6 38 128.5C38 132.3 38.5 133.6 41.1 136C42.8 137.6 46 139.4 48.1 140.1C52.8 141.5 52.8 141.3 53.3 157.9C53.8 171.5 55.1 176.2 59.8 181.2C63.6 185.3 69 187.8 75.4 188.5C80.8 189.1 81 189.1 82 186.5C83.4 182.7 83.3 175.3 81.8 174.2C81.1 173.6 79.3 172.9 77.8 172.5C76.3 172.2 74.7 171.1 74.2 170.1C73.7 169.2 73 162.2 72.7 154.5C72 138.7 71.3 136.9 65 135C57.9 132.9 57.7 126.9 64.8 125C70.8 123.3 71.6 120.8 72.5 102C72.8 93 73.4 85.1 73.6 84.4C73.9 83.7 76 82.3 78.3 81.3C82.4 79.4 82.5 79.3 82.8 73.9C83.2 66.2 80.6 64.7 71.2 66.9Z" fill="url(#paint0_linear_136_479)"/>
<path d="M169.8 66.5C169.3 66.9 169 70.1 169 73.6V79.9L173 81.5C175.2 82.4 177.5 84 178 85C178.6 86 179 93.9 179 102.7C179 120.8 179.5 122.3 186.9 125.2C189 126.1 191 127.5 191.4 128.5C192.1 130.4 189.6 134.9 187.7 134.9C187 134.9 184.8 136 182.7 137.4L179 140V154.4C179 167.6 178.8 169.1 177 170.9C175.9 172 174.4 172.9 173.7 172.9C170.3 172.9 168.4 178.4 168.9 186.8C169 189.1 169.2 189.2 176.4 188.7C182 188.3 184.6 187.7 187.1 185.9C195.8 179.8 197.9 174.7 198.6 158.6C198.9 151.9 199.3 145.5 199.5 144.3C199.8 143.1 202 141.2 205 139.5C212.2 135.6 213 134.5 213 128.6C213 122.1 211.6 120 205.1 116.9C201.8 115.4 199.8 113.8 199.5 112.5C199.3 111.3 198.9 104.6 198.6 97.6C198.2 87.3 197.7 83.9 196 80.4C192.9 74 190.3 71.1 185.7 68.8C181.5 66.6 171.1 65.1 169.8 66.5Z" fill="url(#paint1_linear_136_479)"/>
<path d="M87.0001 97.3999C86.3001 98.1999 85.7001 100.8 85.6001 103C85.6001 106.2 86.1001 107.5 87.9001 109C90.1001 110.8 92.4001 110.9 129.1 110.9C167.4 110.9 167.9 110.9 169 108.8C170.6 105.8 169.3 99.1999 166.7 97.3999C163.5 95.0999 88.9001 95.1999 87.0001 97.3999Z" fill="url(#paint2_linear_136_479)"/>
<path d="M89.4003 123.6C86.0003 126 84.9003 133.6 87.6003 136.3C88.9003 137.7 93.9003 137.9 126.6 137.9C163.8 137.9 167.1 137.6 169.2 134.5C170.5 132.7 170.1 127.4 168.6 125.3C167.2 123.5 165.5 123.4 128.8 123.1C107.7 123 90.0003 123.2 89.4003 123.6Z" fill="#945CC9"/>
<path d="M86.3998 154.3C86.0998 155 85.9998 157.8 86.1998 160.5L86.4998 165.4L108.5 165.6C133.6 165.9 135.6 165.5 135.3 160C135.3 158.2 134.4 155.9 133.4 154.8C131.8 153 130.2 152.9 109.3 152.9C91.1998 152.9 86.7998 153.2 86.3998 154.3Z" fill="url(#paint3_linear_136_479)"/>
<path d="M293.5 90.0998C282.7 92.9998 276.5 101.1 277.3 111.1C278.2 121 283.2 125.7 298.1 130.2C310.2 133.9 314 139 309.1 145C307.4 147.1 306.3 147.4 300.2 147.4C294.4 147.4 292.3 146.9 287 144.1C283.5 142.3 280.6 141 280.5 141.1C277.2 145.9 274 150.9 274 151.3C274 151.6 275.7 152.9 277.8 154.2C297.3 166.5 322.2 161.2 326 143.9C327.5 136.9 326.2 131.3 321.7 126.2C318.9 123.1 309.8 117.9 307 117.9C304.2 117.9 294.7 113.4 293.4 111.5C288.6 104.1 301.6 99.1998 312 104.4C318 107.4 318.6 107.3 322.1 102.3L325.3 97.5998L322.9 95.7998C316.3 90.5998 301.8 87.7998 293.5 90.0998Z" fill="#23458F"/>
<path d="M768.8 90.2999C754.1 94.5999 744.3 106.7 743.2 121.9C742.1 137.9 749.5 151.4 763 157.8C767.8 160.1 769.7 160.4 779 160.4C788.4 160.4 790.1 160.1 795 157.7C798 156.2 802.1 153.4 804 151.4L807.4 147.9L803.2 143.6C799 139.4 799 139.4 796.2 141.1C786.4 147.3 777.4 148.7 770.2 145C758.3 138.9 754.6 123.3 762.3 111.8C769.1 101.7 781.8 100.3 792.6 108.5L797.2 112.1L801.9 107.7C804.4 105.4 806.7 103.3 806.9 103.1C808.2 102.4 799.7 95.3999 794.4 92.7999C787.1 89.1999 776.3 88.0999 768.8 90.2999Z" fill="#23458F"/>
<path d="M866.8 90.6999L860 90.9999V103.9V116.9H845.5H831V103.9V90.8999H824H817V125.4V159.9H824H831V144.9V129.9H845.5H860V144.9V159.9H867H873.9L874.2 125.3C874.4 106.3 874.3 90.5999 874 90.5999C873.7 90.4999 870.5 90.4999 866.8 90.6999Z" fill="#23458F"/>
<path d="M336 125.4V159.9H343.5H351.1L350.9 148.3C350.8 137.5 350.9 136.6 353.1 134.3C354.3 133 355.6 131.9 356 131.9C356.3 131.9 361.1 138.2 366.6 145.9L376.5 159.9H385.3C390.1 159.9 394 159.7 394 159.4C394 159 390.3 153.8 385.7 147.6C381.2 141.4 375.1 133.1 372.1 129.1C369.2 125.1 367 121.3 367.3 120.6C367.6 120 371 115.6 374.9 111C378.7 106.5 384 99.9999 386.5 96.7999L391.1 90.8999H382.7H374.3L363.4 104C357.4 111.1 352.4 117.4 352.2 118C352 118.5 351.5 118.9 351 118.9C350.5 118.9 350.4 112.6 350.7 104.9L351.2 90.8999H343.6H336V125.4Z" fill="#23458F"/>
<path d="M398 97.5999C400.8 108.1 414 158.7 414 159.4C414 159.7 417.6 159.9 421.9 159.9H429.8L433 149.6C442.5 118.7 444.3 113.6 445 115C445.4 115.8 448.8 126.2 452.6 138.1L459.4 159.9H467.1C474.2 159.9 474.8 159.7 475.2 157.6C475.8 155.2 491.7 95.4999 492.6 92.5999C493.1 91.0999 492.3 90.8999 485.3 90.8999H477.5L473.6 107.1C471.5 116.1 469.1 126.7 468.2 130.6C467.4 134.6 466.4 137.9 466.1 137.9C465.8 137.9 464 132.6 462.2 126.1C460.4 119.7 457.4 109.2 455.6 102.9L452.2 91.3999H444.9H437.6L433.4 104.9C424.1 135 422.6 139.3 422.2 137.4C421.6 133.8 412.9 94.4999 412.4 92.5999C411.9 91.1999 410.6 90.8999 404 90.8999H396.1L398 97.5999Z" fill="#23458F"/>
<path d="M510 109.6C506 119.9 500.1 135 496.8 143.2C493.6 151.3 491 158.4 491 159C491 159.6 493.7 159.9 498.2 159.7L505.3 159.4L507.8 152.6L510.3 145.9H524H537.8L540.3 152.6L542.8 159.4L550.4 159.7L558 160L555.8 154.2C554.6 151 548.6 135.6 542.4 119.9L531.3 91.4L524.3 91.1L517.4 90.8L510 109.6ZM528.6 121.4L532.7 132.9H523.9H515.1L518.2 124.6C519.9 120.1 521.7 114.9 522.3 113.1C522.9 111.4 523.6 109.9 523.9 109.9C524.2 109.9 526.3 115.1 528.6 121.4Z" fill="#23458F"/>
<path d="M566 125.4V160.1L582.3 159.7C595.5 159.3 599.5 158.9 603.7 157.2C611.7 154 616.5 149.7 620.2 142.1C623.3 135.9 623.5 134.7 623.5 125.4C623.5 116.7 623.1 114.7 620.9 109.9C617.3 102.2 612.9 97.5001 606.2 94.2001C600.7 91.5001 599.8 91.4001 583.3 91.1001L566 90.7001V125.4ZM595.5 105C611.9 109.5 613.4 136.8 597.6 144.3C595.8 145.1 591.1 146.2 587.1 146.5L580 147.2V125.5V103.9H585.8C588.9 103.9 593.3 104.4 595.5 105Z" fill="#23458F"/>
<path d="M629 96.8999V102.9H639H649V131.4V159.9H656H663V131.4V102.9H673H683V96.8999V90.8999H656H629V96.8999Z" fill="#23458F"/>
<path d="M692 125.4V159.9H714H736V153.4V146.9H721H706V138.4V129.9H718H730V123.4V116.9H718H706V109.9V102.9H721H736V96.8999V90.8999H714H692V125.4Z" fill="#23458F"/>
<path d="M288.12 206.21C286.72 206.21 285.46 205.97 284.34 205.49C283.22 204.99 282.34 204.29 281.7 203.39C281.06 202.49 280.74 201.44 280.74 200.24H284.4C284.48 201.14 284.83 201.88 285.45 202.46C286.09 203.04 286.98 203.33 288.12 203.33C289.3 203.33 290.22 203.05 290.88 202.49C291.54 201.91 291.87 201.17 291.87 200.27C291.87 199.57 291.66 199 291.24 198.56C290.84 198.12 290.33 197.78 289.71 197.54C289.11 197.3 288.27 197.04 287.19 196.76C285.83 196.4 284.72 196.04 283.86 195.68C283.02 195.3 282.3 194.72 281.7 193.94C281.1 193.16 280.8 192.12 280.8 190.82C280.8 189.62 281.1 188.57 281.7 187.67C282.3 186.77 283.14 186.08 284.22 185.6C285.3 185.12 286.55 184.88 287.97 184.88C289.99 184.88 291.64 185.39 292.92 186.41C294.22 187.41 294.94 188.79 295.08 190.55H291.3C291.24 189.79 290.88 189.14 290.22 188.6C289.56 188.06 288.69 187.79 287.61 187.79C286.63 187.79 285.83 188.04 285.21 188.54C284.59 189.04 284.28 189.76 284.28 190.7C284.28 191.34 284.47 191.87 284.85 192.29C285.25 192.69 285.75 193.01 286.35 193.25C286.95 193.49 287.77 193.75 288.81 194.03C290.19 194.41 291.31 194.79 292.17 195.17C293.05 195.55 293.79 196.14 294.39 196.94C295.01 197.72 295.32 198.77 295.32 200.09C295.32 201.15 295.03 202.15 294.45 203.09C293.89 204.03 293.06 204.79 291.96 205.37C290.88 205.93 289.6 206.21 288.12 206.21ZM308.865 206.21C306.925 206.21 305.135 205.76 303.495 204.86C301.875 203.94 300.585 202.67 299.625 201.05C298.685 199.41 298.215 197.57 298.215 195.53C298.215 193.49 298.685 191.66 299.625 190.04C300.585 188.42 301.875 187.16 303.495 186.26C305.135 185.34 306.925 184.88 308.865 184.88C310.825 184.88 312.615 185.34 314.235 186.26C315.875 187.16 317.165 188.42 318.105 190.04C319.045 191.66 319.515 193.49 319.515 195.53C319.515 197.57 319.045 199.41 318.105 201.05C317.165 202.67 315.875 203.94 314.235 204.86C312.615 205.76 310.825 206.21 308.865 206.21ZM308.865 203.24C310.245 203.24 311.475 202.93 312.555 202.31C313.635 201.67 314.475 200.77 315.075 199.61C315.695 198.43 316.005 197.07 316.005 195.53C316.005 193.99 315.695 192.64 315.075 191.48C314.475 190.32 313.635 189.43 312.555 188.81C311.475 188.19 310.245 187.88 308.865 187.88C307.485 187.88 306.255 188.19 305.175 188.81C304.095 189.43 303.245 190.32 302.625 191.48C302.025 192.64 301.725 193.99 301.725 195.53C301.725 197.07 302.025 198.43 302.625 199.61C303.245 200.77 304.095 201.67 305.175 202.31C306.255 202.93 307.485 203.24 308.865 203.24ZM344.841 185.15V206H341.421V191.72L335.061 206H332.691L326.301 191.72V206H322.881V185.15H326.571L333.891 201.5L341.181 185.15H344.841ZM358.846 206.21C356.906 206.21 355.116 205.76 353.476 204.86C351.856 203.94 350.566 202.67 349.606 201.05C348.666 199.41 348.196 197.57 348.196 195.53C348.196 193.49 348.666 191.66 349.606 190.04C350.566 188.42 351.856 187.16 353.476 186.26C355.116 185.34 356.906 184.88 358.846 184.88C360.806 184.88 362.596 185.34 364.216 186.26C365.856 187.16 367.146 188.42 368.086 190.04C369.026 191.66 369.496 193.49 369.496 195.53C369.496 197.57 369.026 199.41 368.086 201.05C367.146 202.67 365.856 203.94 364.216 204.86C362.596 205.76 360.806 206.21 358.846 206.21ZM358.846 203.24C360.226 203.24 361.456 202.93 362.536 202.31C363.616 201.67 364.456 200.77 365.056 199.61C365.676 198.43 365.986 197.07 365.986 195.53C365.986 193.99 365.676 192.64 365.056 191.48C364.456 190.32 363.616 189.43 362.536 188.81C361.456 188.19 360.226 187.88 358.846 187.88C357.466 187.88 356.236 188.19 355.156 188.81C354.076 189.43 353.226 190.32 352.606 191.48C352.006 192.64 351.706 193.99 351.706 195.53C351.706 197.07 352.006 198.43 352.606 199.61C353.226 200.77 354.076 201.67 355.156 202.31C356.236 202.93 357.466 203.24 358.846 203.24ZM379.731 206.21C378.331 206.21 377.071 205.97 375.951 205.49C374.831 204.99 373.951 204.29 373.311 203.39C372.671 202.49 372.351 201.44 372.351 200.24H376.011C376.091 201.14 376.441 201.88 377.061 202.46C377.701 203.04 378.591 203.33 379.731 203.33C380.911 203.33 381.831 203.05 382.491 202.49C383.151 201.91 383.481 201.17 383.481 200.27C383.481 199.57 383.271 199 382.851 198.56C382.451 198.12 381.941 197.78 381.321 197.54C380.721 197.3 379.881 197.04 378.801 196.76C377.441 196.4 376.331 196.04 375.471 195.68C374.631 195.3 373.911 194.72 373.311 193.94C372.711 193.16 372.411 192.12 372.411 190.82C372.411 189.62 372.711 188.57 373.311 187.67C373.911 186.77 374.751 186.08 375.831 185.6C376.911 185.12 378.161 184.88 379.581 184.88C381.601 184.88 383.251 185.39 384.531 186.41C385.831 187.41 386.551 188.79 386.691 190.55H382.911C382.851 189.79 382.491 189.14 381.831 188.6C381.171 188.06 380.301 187.79 379.221 187.79C378.241 187.79 377.441 188.04 376.821 188.54C376.201 189.04 375.891 189.76 375.891 190.7C375.891 191.34 376.081 191.87 376.461 192.29C376.861 192.69 377.361 193.01 377.961 193.25C378.561 193.49 379.381 193.75 380.421 194.03C381.801 194.41 382.921 194.79 383.781 195.17C384.661 195.55 385.401 196.14 386.001 196.94C386.621 197.72 386.931 198.77 386.931 200.09C386.931 201.15 386.641 202.15 386.061 203.09C385.501 204.03 384.671 204.79 383.571 205.37C382.491 205.93 381.211 206.21 379.731 206.21ZM405.63 206.21C404.23 206.21 402.97 205.97 401.85 205.49C400.73 204.99 399.85 204.29 399.21 203.39C398.57 202.49 398.25 201.44 398.25 200.24H401.91C401.99 201.14 402.34 201.88 402.96 202.46C403.6 203.04 404.49 203.33 405.63 203.33C406.81 203.33 407.73 203.05 408.39 202.49C409.05 201.91 409.38 201.17 409.38 200.27C409.38 199.57 409.17 199 408.75 198.56C408.35 198.12 407.84 197.78 407.22 197.54C406.62 197.3 405.78 197.04 404.7 196.76C403.34 196.4 402.23 196.04 401.37 195.68C400.53 195.3 399.81 194.72 399.21 193.94C398.61 193.16 398.31 192.12 398.31 190.82C398.31 189.62 398.61 188.57 399.21 187.67C399.81 186.77 400.65 186.08 401.73 185.6C402.81 185.12 404.06 184.88 405.48 184.88C407.5 184.88 409.15 185.39 410.43 186.41C411.73 187.41 412.45 188.79 412.59 190.55H408.81C408.75 189.79 408.39 189.14 407.73 188.6C407.07 188.06 406.2 187.79 405.12 187.79C404.14 187.79 403.34 188.04 402.72 188.54C402.1 189.04 401.79 189.76 401.79 190.7C401.79 191.34 401.98 191.87 402.36 192.29C402.76 192.69 403.26 193.01 403.86 193.25C404.46 193.49 405.28 193.75 406.32 194.03C407.7 194.41 408.82 194.79 409.68 195.17C410.56 195.55 411.3 196.14 411.9 196.94C412.52 197.72 412.83 198.77 412.83 200.09C412.83 201.15 412.54 202.15 411.96 203.09C411.4 204.03 410.57 204.79 409.47 205.37C408.39 205.93 407.11 206.21 405.63 206.21ZM426.375 206.21C424.435 206.21 422.645 205.76 421.005 204.86C419.385 203.94 418.095 202.67 417.135 201.05C416.195 199.41 415.725 197.57 415.725 195.53C415.725 193.49 416.195 191.66 417.135 190.04C418.095 188.42 419.385 187.16 421.005 186.26C422.645 185.34 424.435 184.88 426.375 184.88C428.335 184.88 430.125 185.34 431.745 186.26C433.385 187.16 434.675 188.42 435.615 190.04C436.555 191.66 437.025 193.49 437.025 195.53C437.025 197.57 436.555 199.41 435.615 201.05C434.675 202.67 433.385 203.94 431.745 204.86C430.125 205.76 428.335 206.21 426.375 206.21ZM426.375 203.24C427.755 203.24 428.985 202.93 430.065 202.31C431.145 201.67 431.985 200.77 432.585 199.61C433.205 198.43 433.515 197.07 433.515 195.53C433.515 193.99 433.205 192.64 432.585 191.48C431.985 190.32 431.145 189.43 430.065 188.81C428.985 188.19 427.755 187.88 426.375 187.88C424.995 187.88 423.765 188.19 422.685 188.81C421.605 189.43 420.755 190.32 420.135 191.48C419.535 192.64 419.235 193.99 419.235 195.53C419.235 197.07 419.535 198.43 420.135 199.61C420.755 200.77 421.605 201.67 422.685 202.31C423.765 202.93 424.995 203.24 426.375 203.24ZM443.811 203.24H450.861V206H440.391V185.15H443.811V203.24ZM457.111 185.15V198.44C457.111 200.02 457.521 201.21 458.341 202.01C459.181 202.81 460.341 203.21 461.821 203.21C463.321 203.21 464.481 202.81 465.301 202.01C466.141 201.21 466.561 200.02 466.561 198.44V185.15H469.981V198.38C469.981 200.08 469.611 201.52 468.871 202.7C468.131 203.88 467.141 204.76 465.901 205.34C464.661 205.92 463.291 206.21 461.791 206.21C460.291 206.21 458.921 205.92 457.681 205.34C456.461 204.76 455.491 203.88 454.771 202.7C454.051 201.52 453.691 200.08 453.691 198.38V185.15H457.111ZM483.944 203.21C485.204 203.21 486.314 202.94 487.274 202.4C488.234 201.86 488.984 201.04 489.524 199.94H493.634C492.914 201.78 491.794 203.24 490.274 204.32C488.754 205.38 486.994 205.99 484.994 206.15V207.44C486.154 207.44 487.094 207.71 487.814 208.25C488.534 208.81 488.894 209.59 488.894 210.59C488.894 211.59 488.534 212.38 487.814 212.96C487.094 213.56 486.184 213.86 485.084 213.86H481.124V211.7H484.394C484.954 211.7 485.374 211.62 485.654 211.46C485.934 211.3 486.074 211.01 486.074 210.59C486.074 210.17 485.934 209.88 485.654 209.72C485.374 209.56 484.954 209.48 484.394 209.48H482.744V206.12C480.984 205.94 479.384 205.38 477.944 204.44C476.504 203.5 475.364 202.26 474.524 200.72C473.704 199.16 473.294 197.43 473.294 195.53C473.294 193.49 473.764 191.66 474.704 190.04C475.664 188.42 476.954 187.16 478.574 186.26C480.214 185.34 482.004 184.88 483.944 184.88C486.164 184.88 488.134 185.43 489.854 186.53C491.594 187.61 492.854 189.15 493.634 191.15H489.524C488.984 190.05 488.234 189.23 487.274 188.69C486.314 188.15 485.204 187.88 483.944 187.88C482.564 187.88 481.334 188.19 480.254 188.81C479.174 189.43 478.324 190.32 477.704 191.48C477.104 192.64 476.804 193.99 476.804 195.53C476.804 197.07 477.104 198.42 477.704 199.58C478.324 200.74 479.174 201.64 480.254 202.28C481.334 202.9 482.564 203.21 483.944 203.21ZM510.207 201.74H501.477L499.977 206H496.407L503.877 185.12H507.837L515.307 206H511.707L510.207 201.74ZM509.247 198.95L505.857 189.26L502.437 198.95H509.247ZM500.967 183.41C501.127 182.25 501.507 181.38 502.107 180.8C502.707 180.2 503.457 179.9 504.357 179.9C504.737 179.9 505.067 179.96 505.347 180.08C505.627 180.2 505.967 180.38 506.367 180.62C506.667 180.82 506.917 180.97 507.117 181.07C507.337 181.17 507.577 181.22 507.837 181.22C508.177 181.22 508.457 181.12 508.677 180.92C508.917 180.7 509.067 180.38 509.127 179.96H511.047C510.887 181.12 510.507 182 509.907 182.6C509.307 183.18 508.557 183.47 507.657 183.47C507.277 183.47 506.937 183.41 506.637 183.29C506.337 183.15 506.007 182.96 505.647 182.72C505.287 182.5 505.007 182.35 504.807 182.27C504.627 182.17 504.417 182.12 504.177 182.12C503.837 182.12 503.547 182.23 503.307 182.45C503.087 182.67 502.947 182.99 502.887 183.41H500.967ZM528.065 206.21C526.125 206.21 524.335 205.76 522.695 204.86C521.075 203.94 519.785 202.67 518.825 201.05C517.885 199.41 517.415 197.57 517.415 195.53C517.415 193.49 517.885 191.66 518.825 190.04C519.785 188.42 521.075 187.16 522.695 186.26C524.335 185.34 526.125 184.88 528.065 184.88C530.025 184.88 531.815 185.34 533.435 186.26C535.075 187.16 536.365 188.42 537.305 190.04C538.245 191.66 538.715 193.49 538.715 195.53C538.715 197.57 538.245 199.41 537.305 201.05C536.365 202.67 535.075 203.94 533.435 204.86C531.815 205.76 530.025 206.21 528.065 206.21ZM528.065 203.24C529.445 203.24 530.675 202.93 531.755 202.31C532.835 201.67 533.675 200.77 534.275 199.61C534.895 198.43 535.205 197.07 535.205 195.53C535.205 193.99 534.895 192.64 534.275 191.48C533.675 190.32 532.835 189.43 531.755 188.81C530.675 188.19 529.445 187.88 528.065 187.88C526.685 187.88 525.455 188.19 524.375 188.81C523.295 189.43 522.445 190.32 521.825 191.48C521.225 192.64 520.925 193.99 520.925 195.53C520.925 197.07 521.225 198.43 521.825 199.61C522.445 200.77 523.295 201.67 524.375 202.31C525.455 202.93 526.685 203.24 528.065 203.24ZM564.453 191.36C564.453 192.42 564.203 193.42 563.703 194.36C563.203 195.3 562.403 196.07 561.303 196.67C560.203 197.25 558.793 197.54 557.073 197.54H553.293V206H549.873V185.15H557.073C558.673 185.15 560.023 185.43 561.123 185.99C562.243 186.53 563.073 187.27 563.613 188.21C564.173 189.15 564.453 190.2 564.453 191.36ZM557.073 194.75C558.373 194.75 559.343 194.46 559.983 193.88C560.623 193.28 560.943 192.44 560.943 191.36C560.943 189.08 559.653 187.94 557.073 187.94H553.293V194.75H557.073ZM580.285 201.74H571.555L570.055 206H566.485L573.955 185.12H577.915L585.385 206H581.785L580.285 201.74ZM579.325 198.95L575.935 189.26L572.515 198.95H579.325ZM599.463 206L594.663 197.66H592.053V206H588.633V185.15H595.833C597.433 185.15 598.783 185.43 599.883 185.99C601.003 186.55 601.833 187.3 602.373 188.24C602.933 189.18 603.213 190.23 603.213 191.39C603.213 192.75 602.813 193.99 602.013 195.11C601.233 196.21 600.023 196.96 598.383 197.36L603.543 206H599.463ZM592.053 194.93H595.833C597.113 194.93 598.073 194.61 598.713 193.97C599.373 193.33 599.703 192.47 599.703 191.39C599.703 190.31 599.383 189.47 598.743 188.87C598.103 188.25 597.133 187.94 595.833 187.94H592.053V194.93ZM620.158 201.74H611.428L609.928 206H606.358L613.828 185.12H617.788L625.258 206H621.658L620.158 201.74ZM619.198 198.95L615.808 189.26L612.388 198.95H619.198ZM648.869 201.74H640.139L638.639 206H635.069L642.539 185.12H646.499L653.969 206H650.369L648.869 201.74ZM647.909 198.95L644.519 189.26L641.099 198.95H647.909ZM671.88 206.21C670.48 206.21 669.22 205.97 668.1 205.49C666.98 204.99 666.1 204.29 665.46 203.39C664.82 202.49 664.5 201.44 664.5 200.24H668.16C668.24 201.14 668.59 201.88 669.21 202.46C669.85 203.04 670.74 203.33 671.88 203.33C673.06 203.33 673.98 203.05 674.64 202.49C675.3 201.91 675.63 201.17 675.63 200.27C675.63 199.57 675.42 199 675 198.56C674.6 198.12 674.09 197.78 673.47 197.54C672.87 197.3 672.03 197.04 670.95 196.76C669.59 196.4 668.48 196.04 667.62 195.68C666.78 195.3 666.06 194.72 665.46 193.94C664.86 193.16 664.56 192.12 664.56 190.82C664.56 189.62 664.86 188.57 665.46 187.67C666.06 186.77 666.9 186.08 667.98 185.6C669.06 185.12 670.31 184.88 671.73 184.88C673.75 184.88 675.4 185.39 676.68 186.41C677.98 187.41 678.7 188.79 678.84 190.55H675.06C675 189.79 674.64 189.14 673.98 188.6C673.32 188.06 672.45 187.79 671.37 187.79C670.39 187.79 669.59 188.04 668.97 188.54C668.35 189.04 668.04 189.76 668.04 190.7C668.04 191.34 668.23 191.87 668.61 192.29C669.01 192.69 669.51 193.01 670.11 193.25C670.71 193.49 671.53 193.75 672.57 194.03C673.95 194.41 675.07 194.79 675.93 195.17C676.81 195.55 677.55 196.14 678.15 196.94C678.77 197.72 679.08 198.77 679.08 200.09C679.08 201.15 678.79 202.15 678.21 203.09C677.65 204.03 676.82 204.79 675.72 205.37C674.64 205.93 673.36 206.21 671.88 206.21ZM686.505 185.15V198.44C686.505 200.02 686.915 201.21 687.735 202.01C688.575 202.81 689.735 203.21 691.215 203.21C692.715 203.21 693.875 202.81 694.695 202.01C695.535 201.21 695.955 200.02 695.955 198.44V185.15H699.375V198.38C699.375 200.08 699.005 201.52 698.265 202.7C697.525 203.88 696.535 204.76 695.295 205.34C694.055 205.92 692.685 206.21 691.185 206.21C689.685 206.21 688.315 205.92 687.075 205.34C685.855 204.76 684.885 203.88 684.165 202.7C683.445 201.52 683.085 200.08 683.085 198.38V185.15H686.505ZM716.398 201.74H707.668L706.168 206H702.598L710.068 185.12H714.028L721.498 206H717.898L716.398 201.74ZM715.438 198.95L712.048 189.26L708.628 198.95H715.438ZM739.409 206.21C738.009 206.21 736.749 205.97 735.629 205.49C734.509 204.99 733.629 204.29 732.989 203.39C732.349 202.49 732.029 201.44 732.029 200.24H735.689C735.769 201.14 736.119 201.88 736.739 202.46C737.379 203.04 738.269 203.33 739.409 203.33C740.589 203.33 741.509 203.05 742.169 202.49C742.829 201.91 743.159 201.17 743.159 200.27C743.159 199.57 742.949 199 742.529 198.56C742.129 198.12 741.619 197.78 740.999 197.54C740.399 197.3 739.559 197.04 738.479 196.76C737.119 196.4 736.009 196.04 735.149 195.68C734.309 195.3 733.589 194.72 732.989 193.94C732.389 193.16 732.089 192.12 732.089 190.82C732.089 189.62 732.389 188.57 732.989 187.67C733.589 186.77 734.429 186.08 735.509 185.6C736.589 185.12 737.839 184.88 739.259 184.88C741.279 184.88 742.929 185.39 744.209 186.41C745.509 187.41 746.229 188.79 746.369 190.55H742.589C742.529 189.79 742.169 189.14 741.509 188.6C740.849 188.06 739.979 187.79 738.899 187.79C737.919 187.79 737.119 188.04 736.499 188.54C735.879 189.04 735.569 189.76 735.569 190.7C735.569 191.34 735.759 191.87 736.139 192.29C736.539 192.69 737.039 193.01 737.639 193.25C738.239 193.49 739.059 193.75 740.099 194.03C741.479 194.41 742.599 194.79 743.459 195.17C744.339 195.55 745.079 196.14 745.679 196.94C746.299 197.72 746.609 198.77 746.609 200.09C746.609 201.15 746.319 202.15 745.739 203.09C745.179 204.03 744.349 204.79 743.249 205.37C742.169 205.93 740.889 206.21 739.409 206.21ZM760.155 206.21C758.215 206.21 756.425 205.76 754.785 204.86C753.165 203.94 751.875 202.67 750.915 201.05C749.975 199.41 749.505 197.57 749.505 195.53C749.505 193.49 749.975 191.66 750.915 190.04C751.875 188.42 753.165 187.16 754.785 186.26C756.425 185.34 758.215 184.88 760.155 184.88C762.115 184.88 763.905 185.34 765.525 186.26C767.165 187.16 768.455 188.42 769.395 190.04C770.335 191.66 770.805 193.49 770.805 195.53C770.805 197.57 770.335 199.41 769.395 201.05C768.455 202.67 767.165 203.94 765.525 204.86C763.905 205.76 762.115 206.21 760.155 206.21ZM760.155 203.24C761.535 203.24 762.765 202.93 763.845 202.31C764.925 201.67 765.765 200.77 766.365 199.61C766.985 198.43 767.295 197.07 767.295 195.53C767.295 193.99 766.985 192.64 766.365 191.48C765.765 190.32 764.925 189.43 763.845 188.81C762.765 188.19 761.535 187.88 760.155 187.88C758.775 187.88 757.545 188.19 756.465 188.81C755.385 189.43 754.535 190.32 753.915 191.48C753.315 192.64 753.015 193.99 753.015 195.53C753.015 197.07 753.315 198.43 753.915 199.61C754.535 200.77 755.385 201.67 756.465 202.31C757.545 202.93 758.775 203.24 760.155 203.24ZM777.59 203.24H784.64V206H774.17V185.15H777.59V203.24ZM790.89 185.15V198.44C790.89 200.02 791.3 201.21 792.12 202.01C792.96 202.81 794.12 203.21 795.6 203.21C797.1 203.21 798.26 202.81 799.08 202.01C799.92 201.21 800.34 200.02 800.34 198.44V185.15H803.76V198.38C803.76 200.08 803.39 201.52 802.65 202.7C801.91 203.88 800.92 204.76 799.68 205.34C798.44 205.92 797.07 206.21 795.57 206.21C794.07 206.21 792.7 205.92 791.46 205.34C790.24 204.76 789.27 203.88 788.55 202.7C787.83 201.52 787.47 200.08 787.47 198.38V185.15H790.89ZM817.723 203.21C818.983 203.21 820.093 202.94 821.053 202.4C822.013 201.86 822.763 201.04 823.303 199.94H827.413C826.693 201.78 825.573 203.24 824.053 204.32C822.533 205.38 820.773 205.99 818.773 206.15V207.44C819.933 207.44 820.873 207.71 821.593 208.25C822.313 208.81 822.673 209.59 822.673 210.59C822.673 211.59 822.313 212.38 821.593 212.96C820.873 213.56 819.963 213.86 818.863 213.86H814.903V211.7H818.173C818.733 211.7 819.153 211.62 819.433 211.46C819.713 211.3 819.853 211.01 819.853 210.59C819.853 210.17 819.713 209.88 819.433 209.72C819.153 209.56 818.733 209.48 818.173 209.48H816.523V206.12C814.763 205.94 813.163 205.38 811.723 204.44C810.283 203.5 809.143 202.26 808.303 200.72C807.483 199.16 807.073 197.43 807.073 195.53C807.073 193.49 807.543 191.66 808.483 190.04C809.443 188.42 810.733 187.16 812.353 186.26C813.993 185.34 815.783 184.88 817.723 184.88C819.943 184.88 821.913 185.43 823.633 186.53C825.373 187.61 826.633 189.15 827.413 191.15H823.303C822.763 190.05 822.013 189.23 821.053 188.69C820.093 188.15 818.983 187.88 817.723 187.88C816.343 187.88 815.113 188.19 814.033 188.81C812.953 189.43 812.103 190.32 811.483 191.48C810.883 192.64 810.583 193.99 810.583 195.53C810.583 197.07 810.883 198.42 811.483 199.58C812.103 200.74 812.953 201.64 814.033 202.28C815.113 202.9 816.343 203.21 817.723 203.21ZM843.986 201.74H835.256L833.756 206H830.186L837.656 185.12H841.616L849.086 206H845.486L843.986 201.74ZM843.026 198.95L839.636 189.26L836.216 198.95H843.026ZM834.746 183.41C834.906 182.25 835.286 181.38 835.886 180.8C836.486 180.2 837.236 179.9 838.136 179.9C838.516 179.9 838.846 179.96 839.126 180.08C839.406 180.2 839.746 180.38 840.146 180.62C840.446 180.82 840.696 180.97 840.896 181.07C841.116 181.17 841.356 181.22 841.616 181.22C841.956 181.22 842.236 181.12 842.456 180.92C842.696 180.7 842.846 180.38 842.906 179.96H844.826C844.666 181.12 844.286 182 843.686 182.6C843.086 183.18 842.336 183.47 841.436 183.47C841.056 183.47 840.716 183.41 840.416 183.29C840.116 183.15 839.786 182.96 839.426 182.72C839.066 182.5 838.786 182.35 838.586 182.27C838.406 182.17 838.196 182.12 837.956 182.12C837.616 182.12 837.326 182.23 837.086 182.45C836.866 182.67 836.726 182.99 836.666 183.41H834.746ZM861.844 206.21C859.904 206.21 858.114 205.76 856.474 204.86C854.854 203.94 853.564 202.67 852.604 201.05C851.664 199.41 851.194 197.57 851.194 195.53C851.194 193.49 851.664 191.66 852.604 190.04C853.564 188.42 854.854 187.16 856.474 186.26C858.114 185.34 859.904 184.88 861.844 184.88C863.804 184.88 865.594 185.34 867.214 186.26C868.854 187.16 870.144 188.42 871.084 190.04C872.024 191.66 872.494 193.49 872.494 195.53C872.494 197.57 872.024 199.41 871.084 201.05C870.144 202.67 868.854 203.94 867.214 204.86C865.594 205.76 863.804 206.21 861.844 206.21ZM861.844 203.24C863.224 203.24 864.454 202.93 865.534 202.31C866.614 201.67 867.454 200.77 868.054 199.61C868.674 198.43 868.984 197.07 868.984 195.53C868.984 193.99 868.674 192.64 868.054 191.48C867.454 190.32 866.614 189.43 865.534 188.81C864.454 188.19 863.224 187.88 861.844 187.88C860.464 187.88 859.234 188.19 858.154 188.81C857.074 189.43 856.224 190.32 855.604 191.48C855.004 192.64 854.704 193.99 854.704 195.53C854.704 197.07 855.004 198.43 855.604 199.61C856.224 200.77 857.074 201.67 858.154 202.31C859.234 202.93 860.464 203.24 861.844 203.24Z" fill="#5F6DB8"/>
<defs>
<linearGradient id="paint0_linear_136_479" x1="60.4952" y1="188.826" x2="60.4952" y2="65.9763" gradientUnits="userSpaceOnUse">
<stop stop-color="#7C67CF"/>
<stop offset="1" stop-color="#945CC9"/>
</linearGradient>
<linearGradient id="paint1_linear_136_479" x1="190.91" y1="188.945" x2="190.91" y2="65.957" gradientUnits="userSpaceOnUse">
<stop stop-color="#7C67CF"/>
<stop offset="1" stop-color="#945CC9"/>
</linearGradient>
<linearGradient id="paint2_linear_136_479" x1="127.65" y1="110.9" x2="127.65" y2="95.7122" gradientUnits="userSpaceOnUse">
<stop stop-color="#7C67CF"/>
<stop offset="1" stop-color="#945CC9"/>
</linearGradient>
<linearGradient id="paint3_linear_136_479" x1="110.71" y1="165.673" x2="110.71" y2="152.9" gradientUnits="userSpaceOnUse">
<stop stop-color="#7C67CF"/>
<stop offset="1" stop-color="#945CC9"/>
</linearGradient>
</defs>
</svg>
